<?xml version="1.0" encoding="UTF-8"?>
<svg xmlns="http://www.w3.org/2000/svg" xmlns:xlink="http://www.w3.org/1999/xlink" width="512px" height="139px" viewBox="0 0 512 139" version="1.1">
<g id="surface1">
<path style=" stroke:none;fill-rule:nonzero;fill:rgb(100%,100%,100%);fill-opacity:1;" d="M 164.039062 66.828125 C 164.039062 89.53125 178.605469 105.367188 198.789062 105.367188 C 218.976562 105.367188 233.542969 89.53125 233.542969 66.828125 C 233.542969 44.121094 218.976562 28.285156 198.789062 28.285156 C 178.605469 28.285156 164.039062 44.121094 164.039062 66.828125 Z M 220.226562 66.828125 C 220.226562 83.074219 211.378906 93.597656 198.789062 93.597656 C 186.199219 93.597656 177.355469 83.074219 177.355469 66.828125 C 177.355469 50.578125 186.199219 40.058594 198.789062 40.058594 C 211.378906 40.058594 220.226562 50.578125 220.226562 66.828125 Z M 271.046875 105.367188 C 286.34375 105.367188 295.082031 92.449219 295.082031 76.929688 C 295.082031 61.410156 286.34375 48.496094 271.046875 48.496094 C 263.972656 48.496094 258.769531 51.308594 255.335938 55.367188 L 255.335938 49.535156 L 242.851562 49.535156 L 242.851562 122.96875 L 255.335938 122.96875 L 255.335938 98.488281 C 258.769531 102.554688 263.972656 105.367188 271.046875 105.367188 Z M 255.023438 75.367188 C 255.023438 65.054688 260.851562 59.429688 268.550781 59.429688 C 277.601562 59.429688 282.492188 66.515625 282.492188 76.929688 C 282.492188 87.34375 277.601562 94.429688 268.550781 94.429688 C 260.851562 94.429688 255.023438 88.699219 255.023438 78.59375 Z M 328.875 105.367188 C 339.800781 105.367188 348.433594 99.636719 352.285156 90.054688 L 341.566406 85.992188 C 339.902344 91.617188 335.011719 94.742188 328.875 94.742188 C 320.863281 94.742188 315.242188 89.011719 314.308594 79.640625 L 352.597656 79.640625 L 352.597656 75.472656 C 352.597656 60.472656 344.171875 48.496094 328.351562 48.496094 C 312.539062 48.496094 302.339844 60.890625 302.339844 76.929688 C 302.339844 93.804688 313.265625 105.367188 328.875 105.367188 Z M 328.25 59.011719 C 336.15625 59.011719 339.902344 64.222656 340.007812 70.261719 L 314.929688 70.261719 C 316.804688 62.871094 321.796875 59.011719 328.25 59.011719 Z M 361.964844 104.21875 L 374.453125 104.21875 L 374.453125 72.140625 C 374.453125 64.324219 380.175781 60.160156 385.792969 60.160156 C 392.660156 60.160156 395.363281 65.054688 395.363281 71.828125 L 395.363281 104.21875 L 407.851562 104.21875 L 407.851562 68.179688 C 407.851562 56.410156 400.984375 48.496094 389.539062 48.496094 C 382.460938 48.496094 377.574219 51.726562 374.453125 55.367188 L 374.453125 49.535156 L 361.964844 49.535156 Z M 444.421875 29.433594 L 416.121094 104.21875 L 429.332031 104.21875 L 435.679688 87.136719 L 467.933594 87.136719 L 474.386719 104.21875 L 487.808594 104.21875 L 459.507812 29.433594 Z M 451.703125 44.222656 L 463.566406 75.472656 L 440.050781 75.472656 Z M 509.246094 29.652344 L 495.925781 29.652344 L 495.925781 104.4375 L 509.246094 104.4375 Z M 133.523438 56.902344 C 136.671875 47.445312 135.589844 37.085938 130.554688 28.480469 C 122.984375 15.289062 107.765625 8.503906 92.90625 11.695312 C 86.296875 4.242188 76.796875 0 66.835938 0.0585938 C 51.648438 0.0234375 38.167969 9.816406 33.496094 24.285156 C 23.734375 26.289062 15.3125 32.402344 10.382812 41.066406 C 2.753906 54.226562 4.496094 70.816406 14.683594 82.097656 C 11.535156 91.554688 12.617188 101.914062 17.652344 110.519531 C 25.222656 123.710938 40.441406 130.496094 55.300781 127.304688 C 61.910156 134.761719 71.414062 139 81.371094 138.933594 C 96.570312 138.976562 110.050781 129.175781 114.726562 114.691406 C 124.484375 112.691406 132.910156 106.574219 137.835938 97.910156 C 145.453125 84.75 143.710938 68.175781 133.53125 56.890625 Z M 81.378906 129.859375 C 75.296875 129.871094 69.40625 127.738281 64.734375 123.835938 C 64.949219 123.722656 65.316406 123.519531 65.554688 123.371094 L 93.179688 107.398438 C 94.59375 106.597656 95.460938 105.089844 95.453125 103.464844 L 95.453125 64.476562 L 107.128906 71.226562 C 107.253906 71.289062 107.335938 71.410156 107.351562 71.550781 L 107.351562 103.832031 C 107.335938 118.191406 95.71875 129.828125 81.378906 129.859375 Z M 25.523438 105.976562 C 22.476562 100.710938 21.378906 94.535156 22.421875 88.539062 C 22.625 88.660156 22.984375 88.882812 23.238281 89.03125 L 50.863281 105 C 52.265625 105.820312 54 105.820312 55.40625 105 L 89.128906 85.507812 L 89.128906 99.003906 C 89.140625 99.140625 89.074219 99.277344 88.964844 99.363281 L 61.042969 115.503906 C 48.601562 122.671875 32.71875 118.414062 25.523438 105.976562 Z M 18.25 45.613281 C 21.285156 40.335938 26.078125 36.300781 31.78125 34.203125 C 31.78125 34.441406 31.765625 34.863281 31.765625 35.15625 L 31.765625 67.105469 C 31.761719 68.726562 32.628906 70.234375 34.035156 71.035156 L 67.761719 90.527344 L 56.085938 97.277344 C 55.96875 97.355469 55.824219 97.367188 55.691406 97.3125 L 27.761719 81.15625 C 15.351562 73.960938 11.09375 58.066406 18.246094 45.617188 Z M 114.175781 67.957031 L 80.449219 48.464844 L 92.125 41.722656 C 92.242188 41.640625 92.390625 41.628906 92.519531 41.6875 L 120.449219 57.824219 C 132.882812 65.015625 137.144531 80.941406 129.960938 93.386719 C 126.921875 98.65625 122.136719 102.691406 116.433594 104.792969 L 116.433594 71.890625 C 116.449219 70.269531 115.585938 68.765625 114.179688 67.957031 Z M 125.796875 50.449219 C 125.589844 50.324219 125.234375 50.109375 124.976562 49.960938 L 97.351562 33.988281 C 95.949219 33.171875 94.210938 33.171875 92.808594 33.988281 L 59.085938 53.484375 L 59.085938 39.988281 C 59.078125 39.847656 59.140625 39.714844 59.25 39.628906 L 87.175781 23.5 C 99.613281 16.320312 115.515625 20.59375 122.6875 33.046875 C 125.71875 38.3125 126.8125 44.464844 125.785156 50.449219 Z M 52.738281 74.507812 L 41.058594 67.757812 C 40.933594 67.699219 40.851562 67.574219 40.835938 67.4375 L 40.835938 35.152344 C 40.84375 20.78125 52.492188 9.128906 66.851562 9.140625 C 72.925781 9.140625 78.800781 11.273438 83.472656 15.164062 C 83.261719 15.277344 82.894531 15.480469 82.652344 15.628906 L 55.027344 31.601562 C 53.613281 32.402344 52.746094 33.902344 52.757812 35.53125 L 52.738281 74.5 Z M 59.082031 60.820312 L 74.105469 52.136719 L 89.125 60.816406 L 89.125 78.179688 L 74.105469 86.859375 L 59.082031 78.179688 Z M 59.082031 60.820312 "/>
</g>
</svg>
